<?xml version="1.0" encoding="utf-8"?>
<!-- Generator: Adobe Illustrator 24.0.1, SVG Export Plug-In . SVG Version: 6.00 Build 0)  -->
<svg version="1.1" id="Layer_1" xmlns="http://www.w3.org/2000/svg" xmlns:xlink="http://www.w3.org/1999/xlink" x="0px" y="0px"
	 viewBox="0 0 64 64" style="enable-background:new 0 0 64 64;" xml:space="preserve">
<g>
	<g>
		<g>
			<path d="M11.7,23.1h26c0.4,0,0.8-0.5,0.8-1.1c0-0.6-0.4-1.1-0.8-1.1h-26c-0.4,0-0.8,0.5-0.8,1.1C10.9,22.6,11.2,23.1,11.7,23.1z"
				/>
			<path d="M31.2,34.2H13.3c-0.4,0-0.8,0.5-0.8,1.1s0.4,1.1,0.8,1.1h17.9c0.4,0,0.8-0.5,0.8-1.1C32,34.7,31.6,34.2,31.2,34.2z"/>
			<path d="M19,28.7c0-0.6-0.4-1.1-0.8-1.1H8.4c-0.4,0-0.8,0.5-0.8,1.1c0,0.6,0.4,1.1,0.8,1.1h9.8C18.6,29.8,19,29.3,19,28.7z"/>
			<path d="M16.6,16.5h11.4c0.4,0,0.8-0.5,0.8-1.1c0-0.6-0.4-1.1-0.8-1.1H16.6c-0.4,0-0.8,0.5-0.8,1.1C15.7,16,16.1,16.5,16.6,16.5z
				"/>
			<path d="M30.4,15.4c0,0.6,0.4,1.1,0.8,1.1h17.9c0.4,0,0.8-0.5,0.8-1.1c0-0.6-0.4-1.1-0.8-1.1H31.2C30.7,14.3,30.4,14.8,30.4,15.4
				z"/>
			<path d="M40.9,20.9c-0.4,0-0.8,0.5-0.8,1.1c0,0.6,0.4,1.1,0.8,1.1h6.5c0.4,0,0.8-0.5,0.8-1.1c0-0.6-0.4-1.1-0.8-1.1H40.9z"/>
			<path d="M24.7,9.8h21.1c0.4,0,0.8-0.5,0.8-1.1s-0.4-1.1-0.8-1.1H24.7c-0.4,0-0.8,0.5-0.8,1.1S24.2,9.8,24.7,9.8z"/>
			<path d="M52.3,34.2H34.4c-0.4,0-0.8,0.5-0.8,1.1s0.4,1.1,0.8,1.1h17.9c0.4,0,0.8-0.5,0.8-1.1C53.1,34.7,52.8,34.2,52.3,34.2z"/>
			<path d="M47.4,47.5H31.2c-0.4,0-0.8,0.5-0.8,1.1c0,0.6,0.4,1.1,0.8,1.1h16.3c0.4,0,0.8-0.5,0.8-1.1C48.3,48,47.9,47.5,47.4,47.5z
				"/>
			<path d="M42.6,54.2H21.4c-0.4,0-0.8,0.5-0.8,1.1s0.4,1.1,0.8,1.1h21.1c0.4,0,0.8-0.5,0.8-1.1S43,54.2,42.6,54.2z"/>
			<path d="M55.6,27.6H21.4c-0.4,0-0.8,0.5-0.8,1.1c0,0.6,0.4,1.1,0.8,1.1h34.1c0.4,0,0.8-0.5,0.8-1.1C56.4,28.1,56,27.6,55.6,27.6z
				"/>
			<path d="M16.6,40.9c-0.4,0-0.8,0.5-0.8,1.1s0.4,1.1,0.8,1.1h6.5c0.4,0,0.8-0.5,0.8-1.1s-0.4-1.1-0.8-1.1H16.6z"/>
			<path d="M28.7,48.6c0-0.6-0.4-1.1-0.8-1.1H13.3c-0.4,0-0.8,0.5-0.8,1.1c0,0.6,0.4,1.1,0.8,1.1h14.6
				C28.4,49.7,28.7,49.2,28.7,48.6z"/>
			<path d="M25.5,42c0,0.6,0.4,1.1,0.8,1.1h17.9c0.4,0,0.8-0.5,0.8-1.1s-0.4-1.1-0.8-1.1H26.3C25.9,40.9,25.5,41.4,25.5,42z"/>
		</g>
	</g>
</g>
</svg>
