<?xml version="1.0" encoding="utf-8"?>
<!-- Generator: Adobe Illustrator 24.0.1, SVG Export Plug-In . SVG Version: 6.00 Build 0)  -->
<svg version="1.1" id="Layer_1" xmlns="http://www.w3.org/2000/svg" xmlns:xlink="http://www.w3.org/1999/xlink" x="0px" y="0px"
	 viewBox="0 0 17.5 23.1" style="enable-background:new 0 0 17.5 23.1;" xml:space="preserve">
<path d="M1.3,13.4c0-0.9,0.2-1.9,0.7-3s1.1-2.2,1.9-3.3C5.5,5,6.8,3.5,8,2.4l0.7-0.7C9,2,9.3,2.2,9.6,2.4c0.4,0.4,1,1.1,1.9,2.1
	s1.6,1.9,2.2,2.6c0.7,1,1.3,2.1,1.8,3.2s0.7,2.2,0.7,3c0,1-0.2,2-0.6,2.9S14.7,18,14,18.7s-1.5,1.2-2.4,1.6s-1.9,0.6-2.9,0.6
	c-1,0-1.9-0.2-2.9-0.6s-1.7-0.9-2.4-1.5c-0.7-0.6-1.2-1.4-1.6-2.4S1.3,14.5,1.3,13.4z M3.6,10.5c0,0.8,0.2,1.5,0.5,2
	C4.5,13,5,13.2,5.7,13.2c0.7,0,1.2-0.2,1.6-0.7c0.4-0.5,0.5-1.1,0.5-2c0-0.8-0.2-1.5-0.5-2C7,8,6.4,7.8,5.7,7.8C5,7.8,4.5,8,4.1,8.5
	C3.8,9,3.6,9.7,3.6,10.5z M5.2,10.5c0-0.1,0-0.3,0-0.4s0-0.2,0-0.3s0-0.2,0.1-0.3s0.1-0.2,0.1-0.2s0.1-0.1,0.1-0.2
	C5.5,9,5.6,9,5.7,9C5.8,9,6,9.1,6,9.1s0.1,0.2,0.2,0.4c0,0.2,0.1,0.3,0.1,0.4s0,0.3,0,0.5c0,0.2,0,0.4,0,0.5c0,0.1,0,0.3-0.1,0.4
	c0,0.2-0.1,0.3-0.2,0.4S5.8,12,5.7,12c-0.1,0-0.2,0-0.2-0.1s-0.1-0.1-0.1-0.2c0-0.1-0.1-0.2-0.1-0.2c0-0.1,0-0.2-0.1-0.3
	c0-0.1,0-0.2,0-0.3S5.2,10.7,5.2,10.5z M5.8,18.3h1.3l5-10.7h-1.4L5.8,18.3z M10.1,15.3c0,0.8,0.2,1.5,0.5,2
	c0.4,0.5,0.9,0.7,1.6,0.7c0.7,0,1.2-0.2,1.6-0.7s0.5-1.2,0.5-2c0-0.8-0.2-1.5-0.5-2s-0.9-0.7-1.6-0.7c-0.7,0-1.2,0.2-1.6,0.7
	C10.2,13.8,10.1,14.4,10.1,15.3z M11.6,15.3c0-0.2,0-0.4,0-0.5s0-0.3,0.1-0.5s0.1-0.3,0.2-0.4s0.2-0.1,0.3-0.1c0.1,0,0.2,0,0.2,0.1
	c0.1,0,0.1,0.1,0.2,0.2c0,0.1,0.1,0.2,0.1,0.2s0,0.2,0,0.3l0,0.3v0.3c0,0.2,0,0.3,0,0.4l0,0.3l0,0.3l-0.1,0.2l-0.2,0.2l-0.2,0.1
	c-0.1,0-0.2,0-0.3-0.1s-0.1-0.2-0.2-0.4c0-0.2,0-0.3-0.1-0.5S11.6,15.5,11.6,15.3z"/>
</svg>
