<?xml version="1.0" encoding="utf-8"?>
<!-- Generator: Adobe Illustrator 24.0.1, SVG Export Plug-In . SVG Version: 6.00 Build 0)  -->
<svg version="1.1" id="Layer_1" xmlns="http://www.w3.org/2000/svg" xmlns:xlink="http://www.w3.org/1999/xlink" x="0px" y="0px"
	 viewBox="0 0 26.1 24.6" style="enable-background:new 0 0 26.1 24.6;" xml:space="preserve">
<path d="M1.5,9.7c0,0.2,0.1,0.5,0.3,0.6c0.2,0.2,0.4,0.3,0.6,0.3h14.7c0.3,0,0.5,0.1,0.7,0.3s0.3,0.5,0.3,0.7c0,0.3-0.1,0.5-0.3,0.7
	c-0.2,0.2-0.4,0.3-0.7,0.3c-0.3,0-0.5-0.1-0.7-0.3C16.2,12.1,16,12,15.8,12c-0.2,0-0.5,0.1-0.6,0.3s-0.3,0.4-0.3,0.6
	s0.1,0.5,0.3,0.6c0.6,0.5,1.2,0.8,2,0.8s1.5-0.3,2-0.8c0.6-0.5,0.8-1.2,0.8-2c0-0.8-0.3-1.4-0.8-2s-1.2-0.8-2-0.8H2.5
	C2.3,8.7,2,8.8,1.9,9C1.6,9.3,1.5,9.5,1.5,9.7z M1.5,6.4c0,0.2,0.1,0.4,0.3,0.6C2,7.2,2.2,7.3,2.4,7.3h20c0.8,0,1.5-0.3,2-0.8
	c0.6-0.5,0.8-1.2,0.8-2s-0.3-1.4-0.8-2s-1.2-0.8-2-0.8S21,2,20.4,2.5c-0.2,0.2-0.3,0.4-0.3,0.7c0,0.3,0.1,0.5,0.3,0.6S20.9,4,21.2,4
	c0.2,0,0.5-0.1,0.6-0.2c0.2-0.2,0.4-0.3,0.7-0.3c0.3,0,0.5,0.1,0.7,0.3s0.3,0.4,0.3,0.7S23.4,5,23.2,5.2c-0.2,0.2-0.4,0.3-0.7,0.3
	h-20C2.3,5.5,2,5.6,1.9,5.8C1.6,6,1.5,6.2,1.5,6.4z"/>
</svg>
