<?xml version="1.0" encoding="utf-8"?>
<!-- Generator: Adobe Illustrator 24.0.1, SVG Export Plug-In . SVG Version: 6.00 Build 0)  -->
<svg version="1.1" id="Layer_1" xmlns="http://www.w3.org/2000/svg" xmlns:xlink="http://www.w3.org/1999/xlink" x="0px" y="0px"
	 viewBox="0 0 12.5 24" style="enable-background:new 0 0 12.5 24;" xml:space="preserve">
<path d="M1.2,17.7c0-0.9,0.2-1.6,0.6-2.4s0.9-1.4,1.6-1.8V3.6c0-0.8,0.3-1.5,0.8-2s1.2-0.8,2-0.8c0.8,0,1.5,0.3,2,0.8
	c0.5,0.6,0.8,1.2,0.8,2v9.9c0.7,0.5,1.2,1.1,1.6,1.8s0.6,1.5,0.6,2.4c0,0.9-0.2,1.8-0.7,2.6s-1.1,1.4-1.9,1.9s-1.6,0.7-2.6,0.7
	c-0.9,0-1.8-0.2-2.6-0.7S2.4,21,1.9,20.3S1.2,18.6,1.2,17.7z M3,17.7c0,0.9,0.3,1.7,1,2.4s1.4,1,2.4,1c0.9,0,1.7-0.3,2.4-1
	s1-1.5,1-2.4c0-0.6-0.2-1.2-0.5-1.7c-0.3-0.5-0.8-0.9-1.3-1.2l-0.3-0.1c-0.1,0-0.1-0.1-0.1-0.3V3.6c0-0.3-0.1-0.6-0.3-0.8
	C6.9,2.6,6.7,2.4,6.3,2.4C6,2.4,5.7,2.6,5.5,2.8S5.1,3.2,5.1,3.6v10.7c0,0.1-0.1,0.2-0.1,0.3l-0.3,0.1c-0.6,0.3-1,0.7-1.3,1.2
	C3.1,16.5,3,17.1,3,17.7z M3.8,17.7c0,0.7,0.2,1.3,0.7,1.8s1.1,0.8,1.8,0.8S7.5,20,8,19.5c0.5-0.5,0.8-1.1,0.8-1.8
	c0-0.6-0.2-1.2-0.6-1.7c-0.4-0.5-1-0.8-1.6-0.9V7.8c0-0.1,0-0.1-0.1-0.2C6.4,7.6,6.3,7.6,6.3,7.6c-0.1,0-0.2,0-0.2,0.1
	C6,7.7,6,7.8,6,7.8v7.3c-0.6,0.1-1.1,0.4-1.6,0.9C4,16.5,3.8,17.1,3.8,17.7z"/>
</svg>
