<?xml version="1.0" encoding="utf-8"?>
<!-- Generator: Adobe Illustrator 24.0.1, SVG Export Plug-In . SVG Version: 6.00 Build 0)  -->
<svg version="1.1" id="Layer_1" xmlns="http://www.w3.org/2000/svg" xmlns:xlink="http://www.w3.org/1999/xlink" x="0px" y="0px"
	 viewBox="0 0 23.3 21.5" style="enable-background:new 0 0 23.3 21.5;" xml:space="preserve">
<path d="M1.3,10.1c0-0.3,0.2-0.9,0.5-1.6s0.8-1.5,1.3-2.3C5,3.6,7.6,2.3,11,2.1V1.7c0-0.2,0.1-0.4,0.2-0.5S11.5,1,11.7,1
	c0.2,0,0.4,0.1,0.5,0.2c0.1,0.1,0.2,0.3,0.2,0.5v0.4c1,0,1.9,0.2,2.8,0.4s1.6,0.6,2.2,1C18,4,18.6,4.4,19,4.8
	c0.5,0.4,0.9,0.9,1.2,1.4c0.4,0.6,0.8,1.2,1.1,1.9c0.3,0.7,0.5,1.2,0.6,1.6s0.2,0.6,0.2,0.6v0.2c0,0.2-0.1,0.3-0.2,0.4
	s-0.3,0.2-0.5,0.2c-0.3,0-0.5-0.1-0.6-0.3C20,10,19.1,9.6,18.2,9.6c-0.3,0-0.7,0.1-1,0.2c-0.3,0.1-0.6,0.3-0.8,0.4
	c-0.2,0.1-0.4,0.3-0.6,0.4s-0.3,0.2-0.3,0.2c-0.2,0.2-0.4,0.3-0.5,0.3c-0.2,0-0.4-0.1-0.5-0.2c-0.7-0.7-1.4-1.2-2-1.3v7.6v0.2l0,0.2
	l0,0.2l-0.1,0.2l-0.1,0.3l-0.1,0.3L12,18.9l-0.2,0.2c-0.5,0.6-1.2,0.9-2.2,0.9c-1,0-1.8-0.3-2.3-0.9C7.2,19,7.1,18.9,7,18.8
	c-0.1-0.1-0.2-0.3-0.2-0.4c-0.1-0.1-0.1-0.3-0.1-0.4s-0.1-0.2-0.1-0.4c0-0.1,0-0.2,0-0.3s0-0.2,0-0.2s0-0.1,0-0.1
	c0-0.2,0.1-0.3,0.2-0.5c0.2-0.1,0.3-0.2,0.6-0.1c0.2,0,0.3,0.1,0.4,0.2S8,16.9,8,17.1c-0.1,0.4,0,0.8,0.2,1c0.2,0.3,0.6,0.4,1.3,0.4
	c0.5,0,0.9-0.1,1.1-0.4c0.1-0.1,0.2-0.3,0.3-0.5c0.1-0.2,0.1-0.3,0.1-0.5l0-0.2V9.7c-0.7,0.2-1.4,0.6-1.9,1.1C9.1,11,9,11,8.9,11.1
	s-0.2,0.1-0.3,0.1c-0.2,0-0.4-0.1-0.6-0.3C7.2,10,6.3,9.5,5.4,9.6C5,9.6,4.6,9.6,4.3,9.8C3.9,9.9,3.7,10,3.5,10.2
	c-0.2,0.1-0.4,0.3-0.5,0.4s-0.3,0.3-0.3,0.3c-0.2,0.1-0.4,0.2-0.5,0.2s-0.3-0.1-0.5-0.2c-0.2-0.1-0.3-0.2-0.3-0.3
	C1.3,10.5,1.3,10.3,1.3,10.1z M3.4,8.7c0.7-0.4,1.3-0.5,1.9-0.5h0.1c1.1,0,2.2,0.4,3.1,1.3C8.9,9.2,9.4,8.9,10,8.6
	c0.5-0.3,1.1-0.4,1.8-0.4h0.1C13,8.2,14,8.6,15,9.5c0.4-0.3,0.8-0.6,1.4-0.9c0.5-0.3,1.1-0.4,1.8-0.4h0.1c0.6,0,1.1,0.1,1.8,0.4
	c-0.4-0.9-0.7-1.4-0.9-1.7c-1.8-2.3-4.3-3.5-7.4-3.5c-1.6,0-3,0.3-4.2,0.9C6.2,4.9,5.1,5.8,4.4,6.9C4.1,7.3,3.8,7.9,3.4,8.7z"/>
</svg>
